<svg xmlns="http://www.w3.org/2000/svg" width="256" height="256" preserveAspectRatio="xMidYMid"><path d="M128 0C57.308 0 0 57.307 0 128s57.308 128 128 128 128-57.307 128-128S198.693 0 128 0zM27.504 129.334l99.16 99.162c-54.45-.7-98.452-44.71-99.16-99.162zm122.992 96.65l-120.48-120.48C40.233 60.823 80.222 27.487 128 27.487c33.397 0 62.985 16.293 81.263 41.36l-13.917 12.28C180.52 59.864 155.887 45.95 128 45.95c-35.505 0-65.74 22.552-77.17 54.113L155.94 205.17c25.525-9.243 45.157-30.8 51.73-57.477h-43.567V128h64.4c0 47.778-33.336 87.767-78.017 97.983z" fill="#744c9e"/></svg>