<svg xmlns="http://www.w3.org/2000/svg" height="966" viewBox="0 0 264.583 255.588" width="1000" xmlns:v="https://vecta.io/nano"><path d="M153.338 4.24c-1.809 0-3.489.388-5.04.905 3.296 2.197 5.105 5.105 6.01 8.401.065.452.194.775.259 1.228.065.388.129.775.129 1.163.259 5.687-1.486 6.397-2.714 9.758-1.874 4.33-1.357 8.982.905 12.73a7.72 7.72 0 0 0 .775 1.422c-2.456-16.349 11.179-18.804 13.699-23.909.194-4.459-3.489-7.431-6.397-9.499-2.779-1.68-5.299-2.197-7.625-2.197zm20.549 3.683c-.259 1.486-.065 1.099-.129 1.874-.065.517-.065 1.163-.129 1.68-.129.517-.259 1.034-.452 1.551-.129.517-.323 1.034-.517 1.551-.259.517-.452.969-.711 1.486-.194.259-.323.517-.517.775l-.388.582c-.323.452-.646.905-.969 1.292-.388.388-.711.84-1.163 1.163v.065c-.388.323-.775.711-1.228 1.034-1.357 1.034-2.908 1.809-4.33 2.779-.452.323-.905.582-1.292.969-.452.323-.84.646-1.228 1.034-.452.388-.775.775-1.163 1.228-.323.388-.711.84-.969 1.292-.323.452-.646.905-.905 1.357-.259.517-.452.969-.711 1.486-.194.517-.388.969-.517 1.486-.194.582-.323 1.099-.452 1.616-.065.259-.065.582-.129.84s-.065.517-.129.775c0 .517-.065 1.099-.065 1.615 0 .388 0 .775.065 1.163 0 .517.065 1.034.194 1.615.065.517.194 1.034.323 1.551.194.517.323 1.034.517 1.551.129.323.323.646.452.905l-14.863-5.751c-2.52-.711-4.976-1.357-7.496-1.939l-4.071-.969a119.97 119.97 0 0 0-11.761-1.745c-.129 0-.194-.065-.323-.065-3.877-.388-7.69-.582-11.567-.582-2.843 0-5.687.129-8.465.323-3.942.259-7.884.775-11.825 1.422-.969.129-1.939.323-2.908.517-2.003.388-3.942.84-5.816 1.292l-2.908.775c-.969.388-1.874.84-2.779 1.228l-2.132.969c-.129.065-.259.065-.323.129-.646.323-1.228.582-1.809.905-.194.065-.323.129-.452.194-.711.323-1.422.711-2.003 1.034-.452.194-.905.452-1.292.646-.194.129-.452.259-.582.323-.582.323-1.163.646-1.68.969-.582.323-1.099.646-1.551.969s-.905.582-1.292.905c-.065.065-.129.065-.194.129-.388.259-.84.582-1.228.905l-.129.129-.969.775c-.129.065-.259.194-.388.259-.323.259-.646.582-.969.84-.065.129-.194.194-.259.259-.388.388-.775.711-1.163 1.099-.065 0-.065.065-.129.129-.388.323-.775.711-1.163 1.099-.065.065-.065.129-.129.129a15.16 15.16 0 0 0-.969 1.034c-.129.129-.323.259-.452.388-.323.388-.711.775-1.099 1.163-.065.129-.194.194-.259.323-.517.517-.969 1.034-1.486 1.551l-.194.194c-1.034 1.099-2.132 2.197-3.296 3.166-1.163 1.034-2.391 2.003-3.619 2.843-1.292.905-2.52 1.68-3.877 2.456-1.292.711-2.649 1.357-4.071 1.939a46.55 46.55 0 0 1-4.2 1.551c-2.714.582-5.493 1.68-7.884 1.874-.517 0-1.099.129-1.615.194-.582.129-1.099.259-1.615.388l-1.551.582c-.517.194-1.034.452-1.551.711-.452.323-.969.582-1.422.905s-.905.711-1.292 1.099c-.452.323-.905.775-1.292 1.163-.388.452-.775.84-1.099 1.292-.323.517-.711.969-.969 1.486-.323.452-.646.969-.905 1.486-.259.582-.517 1.099-.711 1.68-.194.517-.388 1.099-.582 1.68-.129.517-.259 1.034-.323 1.551 0 .065-.065.129-.065.194-.129.582-.129 1.357-.194 1.745-.065.452-.129.84-.129 1.292 0 .259 0 .582.065.84.065.452.129.84.259 1.228s.259.775.452 1.163v.065c.194.388.452.775.711 1.163s.517.775.84 1.163a17.13 17.13 0 0 0 1.099 1.034 9.45 9.45 0 0 0 1.228 1.034c1.551 1.357 1.939 1.809 3.942 2.843.323.194.646.323 1.034.517.065 0 .129.065.194.065a.58.58 0 0 0 .065.323c.065.517.194 1.034.323 1.551a8.71 8.71 0 0 0 .517 1.551c.194.388.323.775.517 1.163.065.129.129.259.194.323.259.517.517.969.775 1.422l.969 1.357a18.79 18.79 0 0 0 1.099 1.228c.388.388.775.711 1.228 1.099 0 0 .065.065.129.065.388.323.775.646 1.163.905.452.323.905.582 1.422.84.452.259.969.517 1.486.711.388.194.84.323 1.292.452.065.065.129.065.259.129.259.065.582.129.84.194-.194 3.489-.259 6.785.259 7.948.582 1.292 3.425-2.649 6.268-7.173-.388 4.459-.646 9.693 0 11.244.711 1.615 4.588-3.425 7.948-8.982 45.815-10.598 87.624 21.066 92.018 65.783-.84-6.979-9.434-10.856-13.376-9.887-1.939 4.782-5.234 10.921-10.533 14.733.452-4.265.259-8.659-.646-12.924-1.422 5.945-4.2 11.502-8.013 16.284-6.139.452-12.278-2.52-15.509-6.979-.259-.194-.323-.582-.517-.84-.194-.452-.388-.905-.517-1.357-.194-.452-.323-.905-.388-1.357s-.065-.905-.065-1.422v-.969c.065-.452.194-.905.323-1.357s.259-.905.452-1.357c.259-.452.452-.905.775-1.357 1.099-3.102 1.099-5.622-.905-7.108-.388-.259-.775-.452-1.228-.646-.259-.065-.582-.194-.84-.259-.194-.065-.323-.129-.517-.194-.452-.129-.905-.259-1.357-.323-.452-.129-.905-.194-1.357-.194-.452-.065-.969-.129-1.422-.129-.323 0-.646.065-.969.065-.517 0-.969.065-1.422.194-.452.065-.905.129-1.357.259s-.905.259-1.357.452-.84.388-1.292.582c-.388.194-.775.452-1.228.646-15.056 9.822-6.074 32.827 4.2 39.483-3.877.711-7.819 1.551-8.917 2.391l-.129.129c2.779 1.68 5.687 3.102 8.724 4.329 4.136 1.357 8.53 2.585 10.468 3.102v.065c5.363 1.099 10.791 1.486 16.284 1.163 28.626-2.003 52.083-23.78 56.348-52.471l.388 1.68c.194 1.163.452 2.391.582 3.619v.065c.129.582.194 1.163.259 1.68v.259c.065.582.129 1.163.129 1.68.065.711.129 1.422.129 2.132v1.034c0 .323.065.711.065 1.034 0 .388-.065.775-.065 1.163v.905c0 .452-.065.84-.065 1.292 0 .259 0 .517-.065.84 0 .452-.065.905-.065 1.422-.065.194-.065.388-.065.582l-.194 1.486c0 .194 0 .388-.065.582-.065.646-.194 1.228-.259 1.874v.065.065l-.388 1.809v.194l-.388 1.745c0 .065-.065.194-.065.259-.129.582-.259 1.163-.452 1.745v.194c-.194.646-.388 1.228-.517 1.809-.065.065-.065.129-.065.129l-.582 1.939c-.259.646-.452 1.228-.711 1.874s-.452 1.292-.711 1.874l-.775 1.874h-.065c-.259.582-.517 1.228-.84 1.809-.065.194-.129.323-.194.452-.065.065-.065.129-.129.194-4.2 8.465-10.404 15.896-18.158 21.712-.517.323-1.034.711-1.551 1.099-.129.129-.323.194-.452.323-.452.323-.905.646-1.422.969l.194.388h.065l2.714-.388h.065c1.68-.259 3.36-.582 5.04-.905a11.28 11.28 0 0 0 1.422-.323l.905-.194c.452-.065.905-.194 1.357-.259.388-.129.775-.194 1.163-.323 6.462-1.551 12.73-3.683 18.74-6.203-10.274 14.022-24.038 25.331-40.129 32.762 7.431-.517 14.863-1.745 22.035-3.813 26.042-7.69 47.948-25.202 61.065-48.788-2.649 14.927-8.594 29.143-17.383 41.55a101.73 101.73 0 0 0 17.253-14.346c14.475-15.121 23.974-34.313 27.205-54.927a102.9 102.9 0 0 1 1.874 31.147c46.655-65.072 3.877-132.535-14.022-150.305-.065-.129-.129-.194-.129-.323-.065.065-.065.065-.065.129 0-.065 0-.065-.065-.129 0 .775-.065 1.551-.129 2.326-.194 1.486-.388 2.908-.646 4.33-.323 1.422-.711 2.843-1.099 4.265-.452 1.357-.969 2.779-1.551 4.136a55.49 55.49 0 0 1-1.939 3.942c-.711 1.228-1.486 2.52-2.326 3.683-.84 1.228-1.745 2.391-2.649 3.489-.969 1.163-2.003 2.197-3.037 3.231-.646.582-1.228 1.099-1.874 1.615l-1.486 1.292c-1.163.905-2.326 1.745-3.619 2.52-1.228.775-2.52 1.551-3.813 2.197-1.357.646-2.714 1.228-4.071 1.809-1.357.517-2.779.969-4.2 1.357a52.05 52.05 0 0 1-4.329.969c-1.486.259-2.972.388-4.394.517-1.034.065-2.068.129-3.102.129-1.486 0-2.972-.129-4.394-.259-1.486-.129-2.973-.323-4.394-.646-1.486-.259-2.908-.646-4.33-1.099h-.065c1.422-.129 2.843-.259 4.265-.517a46.84 46.84 0 0 0 4.329-.969c1.422-.388 2.843-.84 4.2-1.357 1.422-.517 2.779-1.163 4.071-1.809 1.357-.646 2.585-1.357 3.877-2.132 1.228-.84 2.456-1.68 3.619-2.585s2.262-1.874 3.296-2.908c1.099-.969 2.068-2.068 3.037-3.166a63.86 63.86 0 0 0 2.714-3.489c.129-.194.259-.452.388-.646l1.874-3.102c.711-1.292 1.357-2.585 1.939-3.942a45.28 45.28 0 0 0 1.551-4.136c.452-1.357.775-2.779 1.099-4.2.259-1.486.517-2.908.646-4.33.129-1.486.259-2.973.259-4.394 0-1.034-.065-2.068-.129-3.102-.129-1.486-.323-2.908-.517-4.33-.259-1.486-.582-2.908-.969-4.33-.452-1.357-.905-2.779-1.422-4.136s-1.163-2.714-1.809-4.006c-.711-1.292-1.422-2.585-2.197-3.813-.84-1.228-1.68-2.391-2.585-3.554l-2.973-3.296c-.517-.517-1.099-1.099-1.68-1.615a118.98 118.98 0 0 0-8.982-6.333 12.03 12.03 0 0 0-1.292-.646c-2.132-1.357-4.136-2.068-6.139-2.714z" fill="#e0234e" fill-rule="evenodd"/></svg>