<svg xmlns="http://www.w3.org/2000/svg" width="512" height="309" preserveAspectRatio="xMidYMid"><path d="M120.8 80.56h96.568v7.675h-87.716v57.767h82.485v7.675h-82.485v63.423h88.722v7.675H120.8V80.56zm105.22 0h10.26l45.467 63.423L328.23 80.56 391.44 0 287.59 150.65l53.515 74.128h-10.663l-48.686-67.462-48.887 67.462h-10.462l53.917-74.128L226.03 80.56zm118.9 7.675V80.56h110.047v7.675h-50.698v136.54h-8.852V88.237h-50.497zM0 80.56h11.065l152.58 228.323-63.054-84.107L9.254 91.468l-.402 133.31H0V80.56zm454.084 134.224c-1.81 0-3.165-1.4-3.165-3.212s1.356-3.212 3.165-3.212c1.83 0 3.165 1.4 3.165 3.212s-1.335 3.212-3.165 3.212zm8.698-8.45h4.737c.065 2.565 1.938 4.3 4.694 4.3 3.08 0 4.823-1.854 4.823-5.325V183.3h4.823v22.01c0 6.252-3.617 9.852-9.602 9.852-5.62 0-9.473-3.492-9.473-8.84zm25.384-.28h4.78c.41 2.953 3.294 4.83 7.45 4.83 3.875 0 6.717-2.005 6.717-4.764 0-2.37-1.81-3.794-5.92-4.764l-4.005-.97c-5.62-1.315-8.18-4.03-8.18-8.602 0-5.54 4.52-9.227 11.303-9.227 6.308 0 10.916 3.686 11.196 8.925h-4.694c-.452-2.867-2.95-4.657-6.567-4.657-3.81 0-6.35 1.832-6.35 4.635 0 2.22 1.636 3.492 5.684 4.44l3.423.84c6.373 1.488 9 4.075 9 8.753 0 5.95-4.607 9.68-11.97 9.68-6.9 0-11.52-3.557-11.863-9.12z" fill="#fff"/></svg>