<svg xmlns="http://www.w3.org/2000/svg" xmlns:xlink="http://www.w3.org/1999/xlink" width="256" height="335" preserveAspectRatio="xMidYMid"><defs><linearGradient x1="26.8242921%" y1="48.2236445%" x2="67.5758137%" y2="55.339338%" id="A"><stop stop-color="#ff6533" offset="0%"/><stop stop-color="#ff5633" offset="15.7%"/><stop stop-color="#ff4333" offset="43.4%"/><stop stop-color="#ff3733" offset="71.4%"/><stop stop-color="#f33" offset="100%"/></linearGradient><linearGradient x1="20.4503837%" y1="38.1333935%" x2="93.4858428%" y2="80.4322382%" id="B"><stop stop-color="#bf3338" offset="0%"/><stop stop-color="#f33" offset="100%"/></linearGradient><linearGradient x1="32.2926113%" y1="39.496861%" x2="45.5563705%" y2="48.9139013%" id="C"><stop stop-color="#ff6533" offset="0%"/><stop stop-color="#ff5633" offset="15.7%"/><stop stop-color="#ff4333" offset="43.4%"/><stop stop-color="#ff3733" offset="71.4%"/><stop stop-color="#f33" offset="100%"/></linearGradient><linearGradient x1="51.5641026%" y1="78.3444231%" x2="48.5176441%" y2="41.6628279%" id="D"><stop stop-color="#ff6533" offset="0%"/><stop stop-color="#ff5633" offset="15.7%"/><stop stop-color="#ff4333" offset="43.4%"/><stop stop-color="#ff3733" offset="71.4%"/><stop stop-color="#f33" offset="100%"/></linearGradient><linearGradient x1="40.2012262%" y1="47.2148639%" x2="53.9750044%" y2="54.5349876%" id="E"><stop stop-color="#fbb040" offset="0%"/><stop stop-color="#fb8840" offset="100%"/></linearGradient><linearGradient x1="55.2222794%" y1="5.88782542%" x2="40.9262994%" y2="128.016462%" id="F"><stop stop-color="#fff" offset="0%"/><stop stop-color="#fff" stop-opacity="0" offset="100%"/></linearGradient><path id="G" d="M256 110.133c0-19.683-5.155-38.136-14.235-54.13-24.077-24.78-76.45-30.52-89.454-.117-13.357 31.165 22.437 65.845 38.078 63.092 19.918-3.515-3.515-49.208-3.515-49.208 30.462 57.4 23.432 39.835-31.634 92.558S43.936 326.297 35.735 330.984c-.35.234-.703.4-1.113.586h215.99c3.808 0 6.268-4.042 4.57-7.44l-56.472-111.773c-1.23-2.402-.35-5.39 1.992-6.737 33.04-18.98 55.3-54.598 55.3-95.487z"/></defs><use xlink:href="#G" fill="url(#A)"/><use xlink:href="#G" fill="url(#B)"/><path d="M35.735 330.984c8.2-4.686 64.44-115.99 119.506-168.714s62.096-35.15 31.634-92.558c0 0-116.577 163.442-158.755 244.284" fill="url(#C)"/><path d="M52.137 184.53C130.87 39.777 141.18 25.2 182.188 25.2c21.558 0 43.292 9.724 57.35 27.006C220.383 21.324 186.464.644 147.625.06H13.884a5.1 5.1 0 0 0-5.097 5.097v269.59c7.967-20.562 21.5-49.97 43.35-90.215z" fill="url(#D)"/><path d="M155.24 162.27C100.174 214.993 43.936 326.297 35.735 330.984s-21.968 5.272-29.29-2.93c-7.79-8.73-19.918-22.847 45.693-143.524C130.87 39.777 141.18 25.2 182.188 25.2c21.558 0 43.292 9.724 57.35 27.006l2.285 3.808c-24.077-24.78-76.45-30.52-89.454-.117-13.357 31.165 22.437 65.845 38.078 63.092 19.918-3.515-3.515-49.208-3.515-49.208 30.404 57.35 23.374 39.777-31.692 92.5z" fill="url(#E)"/><path d="M58.58 190.975c78.733-144.754 89.043-159.34 130.05-159.34 17.75 0 35.617 6.62 49.208 18.57-14.06-16.05-34.914-25.014-55.652-25.014-41.007 0-51.317 14.587-130.05 159.34-65.61 120.677-53.485 134.795-45.693 143.524 1.113 1.23 2.402 2.285 3.75 3.163-6.854-9.96-9.9-33.098 48.388-140.243z" fill="url(#F)" opacity=".3"/></svg>