<svg xmlns="http://www.w3.org/2000/svg" width="2162" height="2500" viewBox="0 0 256 296" preserveAspectRatio="xMidYMid"><style><![CDATA[.B{fill:#2f406a}.C{fill:#2379bd}.D{fill:#03afef}]]></style><path d="M219.013 94.362v106.594l-90.576 53.588-.82.745v39.84l.82.772L256 222.216V73.684l-1.205-.295-35.963 20.106.18.867" class="B"/><path d="M37.57 201.83l90.867 52.715V295.9L0 221.925V73.975l1.318-.2 35.86 20.848.393 1.194v106.01" class="C"/><path d="M37.57 95.818L0 73.975 128.146 0 256 73.684l-36.987 20.678-90.867-51.84L37.57 95.818" class="D"/><path d="M126.878 189.638l-.984-1.004v-40.026l.984-.508.24-.987 34.315-20.017 1.05.235v41.242l-35.604 21.065" class="B"/><path d="M90.68 169.858v-42.823l.995-.05L126.58 147.3l.297.8v41.538l-36.198-19.78" class="C"/><path d="M126.284 105.97L90.68 127.035l36.198 21.065 35.604-20.77-36.198-21.362" class="D"/><path d="M82.57 215.748l-.983-1.004v-40.027l.983-.507.24-.987 34.314-20.017 1.05.235v41.24L82.57 215.748" class="B"/><path d="M46.373 195.968v-42.824l.994-.05L82.273 173.4l.297.8v41.538l-36.197-19.78" class="C"/><path d="M81.977 132.08l-35.604 21.065L82.57 174.2l35.604-20.77-36.197-21.362" class="D"/><path d="M174.35 216.737l-.984-1.004v-40.027l.984-.507.24-.987 34.315-20.017 1.05.235v41.24l-35.604 21.066" class="B"/><path d="M138.152 196.957v-42.824l.995-.05 34.906 20.315.297.8v41.538l-36.198-19.78" class="C"/><path d="M173.756 133.068l-35.604 21.065L174.35 175.2l35.604-20.77-36.198-21.362" class="D"/><path d="M130.042 242.847l-.983-1.004v-40.027l.983-.507.24-.988 34.315-20.016 1.05.235v41.24l-35.604 21.066" class="B"/><path d="M93.845 223.067v-42.824l.994-.05 34.907 20.314.296.8v41.538l-36.197-19.78" class="C"/><path d="M129.45 159.177l-35.604 21.066 36.197 21.066 35.604-20.77-36.197-21.363" class="D"/><path d="M126.878 132.87l-.984-1.005V91.84l.984-.507.24-.988 34.315-20.016 1.05.235v41.24l-35.604 21.066" class="B"/><path d="M90.68 113.1V70.266l.995-.05L126.58 90.53l.297.8v41.538L90.68 113.1" class="C"/><path d="M126.284 49.2L90.68 70.266l36.198 21.066 35.604-20.77L126.284 49.2" class="D"/><path d="M82.57 158.98l-.983-1.004V117.95l.983-.508.24-.987 34.314-20.017 1.05.235v41.242L82.57 158.98" class="B"/><path d="M46.373 139.2V96.376l.994-.05 34.906 20.314.297.8v41.538L46.373 139.2" class="C"/><path d="M81.977 75.3L46.373 96.376 82.57 117.44l35.604-20.77L81.977 75.3" class="D"/><path d="M174.35 159.968l-.984-1.004v-40.026l.984-.508.24-.987 34.315-20.017 1.05.235v41.242l-35.604 21.065" class="B"/><path d="M138.152 140.188V97.365l.995-.05 34.906 20.314.297.8v41.538l-36.198-19.78" class="C"/><path d="M173.756 76.3l-35.604 21.066 36.198 21.065 35.604-20.77L173.756 76.3" class="D"/><path d="M130.042 186.078l-.983-1.004v-40.027l.983-.507.24-.987 34.315-20.017 1.05.235v41.24l-35.604 21.066" class="B"/><path d="M93.845 166.298v-42.824l.994-.05 34.907 20.315.296.8v41.538l-36.197-19.78" class="C"/><path d="M129.45 102.408l-35.604 21.066 36.197 21.066 35.604-20.77-36.197-21.363" class="D"/></svg>